<?xml version="1.0" encoding="UTF-8" standalone="no"?>
<!-- Created with Inkscape (http://www.inkscape.org/) -->

<svg
   xmlns:dc="http://purl.org/dc/elements/1.1/"
   xmlns:cc="http://creativecommons.org/ns#"
   xmlns:rdf="http://www.w3.org/1999/02/22-rdf-syntax-ns#"
   xmlns:svg="http://www.w3.org/2000/svg"
   xmlns="http://www.w3.org/2000/svg"
   xmlns:sodipodi="http://sodipodi.sourceforge.net/DTD/sodipodi-0.dtd"
   xmlns:inkscape="http://www.inkscape.org/namespaces/inkscape"
   id="svg3355"
   sodipodi:version="0.32"
   inkscape:version="0.92.1 r15371"
   width="1433"
   height="1310"
   version="1.0"
   sodipodi:docname="fandango-logo.svg"
   inkscape:output_extension="org.inkscape.output.svg.inkscape">
  <metadata
     id="metadata3360">
    <rdf:RDF>
      <cc:Work
         rdf:about="">
        <dc:format>image/svg+xml</dc:format>
        <dc:type
           rdf:resource="http://purl.org/dc/dcmitype/StillImage" />
      </cc:Work>
    </rdf:RDF>
  </metadata>
  <defs
     id="defs3358">
    <inkscape:perspective
       sodipodi:type="inkscape:persp3d"
       inkscape:vp_x="0 : 526.18109 : 1"
       inkscape:vp_y="0 : 1000 : 0"
       inkscape:vp_z="744.09448 : 526.18109 : 1"
       inkscape:persp3d-origin="372.04724 : 350.78739 : 1"
       id="perspective3362" />
  </defs>
  <sodipodi:namedview
     inkscape:window-height="741"
     inkscape:window-width="1366"
     inkscape:pageshadow="2"
     inkscape:pageopacity="0.0"
     guidetolerance="10.0"
     gridtolerance="10.0"
     objecttolerance="10.0"
     borderopacity="1.0"
     bordercolor="#666666"
     pagecolor="#ffffff"
     id="base"
     showgrid="false"
     inkscape:zoom="2.3668776"
     inkscape:cx="-736.55264"
     inkscape:cy="468.91272"
     inkscape:window-x="0"
     inkscape:window-y="27"
     inkscape:current-layer="svg3355"
     inkscape:window-maximized="1" />
  <ellipse
     style="fill:none;fill-opacity:1;stroke:#ff6600;stroke-width:7.26430225;stroke-miterlimit:4;stroke-dasharray:none;stroke-opacity:1"
     id="path3903"
     cx="-598.59375"
     cy="842.78857"
     rx="16.048365"
     ry="16.254236"
     inkscape:export-xdpi="96"
     inkscape:export-ydpi="96" />
  <path
     id="path4539"
     style="font-style:italic;font-variant:normal;font-weight:bold;font-stretch:normal;font-size:64px;line-height:1.25;font-family:sans-serif;-inkscape-font-specification:'sans-serif Bold Italic';letter-spacing:0px;word-spacing:0px;fill:#ff6600;fill-opacity:1;stroke:#ff6600;stroke-opacity:1"
     d="m -638.23426,853.76673 q -2.6875,3.0625 -5.46875,4.5 -2.78125,1.4375 -6.0625,1.4375 -5.9375,0 -9.40625,-3.8125 -3.4375,-3.84375 -3.4375,-10.46875 0,-3.53125 1.1875,-7.0625 1.21875,-3.5625 3.46875,-6.6875 2.75,-3.78125 6.3125,-5.75 3.5625,-2 7.65625,-2 3.6875,0 6.1875,1.4375 2.53125,1.4375 4.25,4.53125 l 0.9375,-5.1875 h 11.28125 l -5.90625,30.40625 q -1.8125,9.40625 -7.75,13.90625 -5.9375,4.5 -16.5,4.5 -3.25,0 -6.28125,-0.5 -3,-0.5 -5.9375,-1.53125 l 1.65625,-8.71875 q 2.65625,1.6875 5.3125,2.5 2.65625,0.84375 5.4375,0.84375 5.5625,0 8.53125,-2.375 3,-2.375 4.03125,-7.5625 z m -3.125,-21.78125 q -4.125,0 -6.875,3.71875 -2.71875,3.71875 -2.71875,9.34375 0,3.1875 1.46875,4.875 1.46875,1.65625 4.28125,1.65625 4.09375,0 6.84375,-3.6875 2.75,-3.71875 2.75,-9.25 0,-3.25 -1.46875,-4.9375 -1.46875,-1.71875 -4.28125,-1.71875 z m -27.96875,6.40625 -4.15625,21.3125 h -11.21875 l 3.53125,-18.25 q 0.375,-1.78125 0.5625,-3 0.21875,-1.25 0.21875,-1.96875 0,-2 -1.125,-3.09375 -1.09375,-1.09375 -3.125,-1.09375 -3.46875,0 -5.96875,2.71875 -2.46875,2.6875 -3.4375,7.46875 l -3.375,17.21875 h -11.21875 l 6.8125,-35 h 11.25 l -1.03125,5.125 q 3.09375,-3.03125 6.21875,-4.5 3.125,-1.46875 6.53125,-1.46875 4.84375,0 7.46875,2.53125 2.625,2.53125 2.625,7.125 0,1 -0.15625,2.21875 -0.125,1.21875 -0.40625,2.65625 z m -63.46875,5.5625 q -4.1875,0 -6.34375,1.3125 -2.125,1.28125 -2.125,3.8125 0,1.90625 1.25,3 1.28125,1.09375 3.5,1.09375 3.4375,0 5.75,-2.0625 2.3125,-2.09375 3.09375,-5.875 l 0.25,-1.28125 z m 17.46875,-4.21875 -3.90625,19.96875 h -11.1875 l 0.9375,-5.1875 q -2.75,3.125 -5.8125,4.625 -3.0625,1.46875 -6.65625,1.46875 -4.96875,0 -7.90625,-2.5625 -2.90625,-2.59375 -2.90625,-6.96875 0,-6.6875 5.15625,-10.21875 5.1875,-3.5625 14.9375,-3.5625 h 6.59375 l 0.125,-0.875 q 0.0937,-0.4375 0.0937,-0.625 0.0312,-0.1875 0.0312,-0.34375 0,-2.0625 -1.96875,-3.09375 -1.9375,-1.0625 -5.78125,-1.0625 -3.46875,0 -6.71875,0.71875 -3.25,0.71875 -6.28125,2.15625 l 1.6875,-8.53125 q 3.5,-0.875 7.15625,-1.3125 3.6875,-0.46875 7.625,-0.46875 7.78125,0 11.5625,2.6875 3.78125,2.65625 3.78125,8.125 0,1.0625 -0.15625,2.34375 -0.125,1.25 -0.40625,2.71875 z m -64.75,12.75 q 4.3125,0 7,-3.96875 2.71875,-3.96875 2.71875,-10.375 0,-2.90625 -1.53125,-4.53125 -1.5,-1.625 -4.21875,-1.625 -4.25,0 -7,3.9375 -2.75,3.90625 -2.75,10.03125 0,3.1875 1.46875,4.875 1.5,1.65625 4.3125,1.65625 z m 11.78125,-22.65625 3.625,-18.75 h 11.28125 l -9.46875,48.625 h -11.28125 l 1.03125,-5.0625 q -2.5625,3.0625 -5.375,4.53125 -2.8125,1.4375 -6.15625,1.4375 -5.90625,0 -9.34375,-3.75 -3.4375,-3.75 -3.4375,-10.21875 0,-4.03125 1.1875,-7.84375 1.21875,-3.8125 3.46875,-6.9375 2.84375,-3.9375 6.40625,-5.96875 3.59375,-2.03125 7.6875,-2.03125 3.59375,0 6.09375,1.46875 2.53125,1.4375 4.28125,4.5 z m -35.78125,8.5625 -4.15625,21.3125 h -11.21875 l 3.53125,-18.25 q 0.375,-1.78125 0.5625,-3 0.21875,-1.25 0.21875,-1.96875 0,-2 -1.125,-3.09375 -1.09375,-1.09375 -3.125,-1.09375 -3.46875,0 -5.96875,2.71875 -2.46875,2.6875 -3.4375,7.46875 l -3.375,17.21875 h -11.21875 l 6.8125,-35 h 11.25 l -1.03125,5.125 q 3.09375,-3.03125 6.21875,-4.5 3.125,-1.46875 6.53125,-1.46875 4.84375,0 7.46875,2.53125 2.625,2.53125 2.625,7.125 0,1 -0.15625,2.21875 -0.125,1.21875 -0.40625,2.65625 z m -63.46875,5.5625 q -4.18751,0 -6.34371,1.3125 -2.125,1.28125 -2.125,3.8125 0,1.90625 1.25,3 1.2812,1.09375 3.5,1.09375 3.4375,0 5.74996,-2.0625 2.3125,-2.09375 3.09375,-5.875 l 0.25,-1.28125 z m 17.46875,-4.21875 -3.90625,19.96875 h -11.1875 l 0.9375,-5.1875 q -2.75,3.125 -5.81251,4.625 -3.0625,1.46875 -6.6562,1.46875 -4.9688,0 -7.9063,-2.5625 -2.9062,-2.59375 -2.9062,-6.96875 0,-6.6875 5.1562,-10.21875 5.1875,-3.5625 14.93751,-3.5625 h 6.59375 l 0.125,-0.875 q 0.0937,-0.4375 0.0937,-0.625 0.0312,-0.1875 0.0312,-0.34375 0,-2.0625 -1.96875,-3.09375 -1.9375,-1.0625 -5.78121,-1.0625 -3.4688,0 -6.7188,0.71875 -3.25,0.71875 -6.2812,2.15625 l 1.6875,-8.53125 q 3.5,-0.875 7.1562,-1.3125 3.6875,-0.46875 7.62501,-0.46875 7.78125,0 11.5625,2.6875 3.78125,2.65625 3.78125,8.125 0,1.0625 -0.15625,2.34375 -0.125,1.25 -0.40625,2.71875 z m -31.84376,-28.65625 -1.4687,7.34375 h -6.1563 q -2.3437,0 -3.4375,0.875 -1.0625,0.84375 -1.4687,2.9375 l -0.5313,2.46875 h 9.4688 l -1.5313,8 h -9.4687 l -5.25,27 h -11.25 l 5.25,-27 h -5.5313 l 1.5625,-8 h 5.5 l 0.5,-2.4375 q 1.1563,-5.8125 4.8125,-8.5 3.6563,-2.6875 10.4063,-2.6875 z"
     inkscape:export-xdpi="96"
     inkscape:export-ydpi="96" />
  <path
     id="path3887"
     style="fill:#777777;fill-opacity:1;stroke-width:0.06542863"
     d="m -615.21169,870.60658 c -1.8017,-0.17854 -3.68467,-0.64034 -5.39744,-1.32377 -0.63892,-0.25495 -2.2592,-1.03757 -2.36495,-1.14235 -0.0264,-0.026 0.23128,0.0477 0.57246,0.16401 1.65661,0.56466 3.23215,0.82402 5.00546,0.82402 2.42483,0 4.54571,-0.49101 6.73686,-1.55967 1.51353,-0.73814 2.6773,-1.56307 3.9171,-2.77654 1.74771,-1.71058 2.91183,-3.48941 3.75662,-5.74032 0.92592,-2.46707 1.21924,-5.23354 0.82675,-7.79763 -0.20963,-1.36948 -0.68327,-2.94774 -1.22608,-4.08553 -0.17868,-0.37455 -0.31834,-0.68739 -0.31037,-0.69526 0.008,-0.007 0.68253,-0.40155 1.49899,-0.87491 l 1.48449,-0.86062 0.31466,0.24608 c 0.17306,0.13534 0.44582,0.31198 0.60612,0.39256 0.37558,0.18877 1.03871,0.35895 1.39866,0.35895 0.60125,0 1.45882,-0.31485 2.0084,-0.73738 0.14031,-0.10787 0.26585,-0.19615 0.27898,-0.19615 0.0642,0 2.91923,1.72027 2.91923,1.75893 0,0.0245 -0.1356,0.35787 -0.30135,0.74065 -0.65074,1.50278 -1.0227,2.8786 -1.20402,4.4535 -0.12122,1.05279 -0.0797,3.09957 0.0834,4.11188 0.45329,2.81344 1.53509,5.3305 3.19791,7.44068 0.51976,0.65962 1.96733,2.09326 2.61333,2.58819 2.19461,1.68141 4.50771,2.66833 7.27794,3.10527 0.89314,0.14088 3.35579,0.1412 4.25253,0 0.94525,-0.14822 1.7998,-0.34996 2.61436,-0.61716 0.40339,-0.13232 0.7438,-0.23013 0.75647,-0.21739 0.047,0.0474 -2.00622,1.01688 -2.71659,1.28272 -2.08375,0.77985 -3.9862,1.1448 -6.2524,1.19948 -1.8862,0.0455 -3.37705,-0.10549 -5.01799,-0.50805 -3.78923,-0.92964 -7.49516,-3.18753 -9.95436,-6.06484 -0.27104,-0.3171 -0.509,-0.58344 -0.5288,-0.59181 -0.0198,-0.008 -0.23415,0.21496 -0.47632,0.49629 -0.24217,0.28135 -0.75686,0.82044 -1.14375,1.198 -3.00015,2.92768 -6.74999,4.75668 -10.97377,5.35249 -0.74663,0.10528 -3.46348,0.15332 -4.25254,0.0751 z m 50.96542,-20.24509 c -0.75905,-3.90188 -3.2016,-7.53427 -6.59205,-9.80324 -1.9032,-1.27364 -4.17086,-2.11408 -6.56397,-2.43268 -0.86975,-0.11579 -2.68817,-0.13088 -3.54379,-0.0294 -2.99773,0.3555 -5.85152,1.54256 -8.15069,3.39033 -0.96838,0.77826 -2.16826,2.08597 -2.85154,3.1078 -0.15583,0.23303 -0.30498,0.42455 -0.33144,0.42557 -0.0265,0 -0.71547,-0.38539 -1.53115,-0.8587 l -1.48306,-0.86053 0.0431,-0.22398 c 0.1119,-0.58126 -0.0104,-1.478 -0.27041,-1.99049 -0.34118,-0.67126 -0.98746,-1.27024 -1.65806,-1.53667 l -0.368,-0.14622 v -1.74461 -1.74458 l 0.31349,-0.0346 c 3.01031,-0.33233 5.61701,-1.28697 7.78268,-2.85023 1.06841,-0.77121 2.45237,-2.09702 3.1876,-3.05366 2.07836,-2.70423 3.18215,-5.74348 3.31057,-9.11554 0.1457,-3.82575 -1.18623,-7.65903 -3.69203,-10.62565 -0.3721,-0.44053 -1.39256,-1.46797 -1.85205,-1.86473 l -0.24534,-0.21185 0.21808,0.12854 c 1.11384,0.65645 2.5176,1.7456 3.5362,2.74365 3.15395,3.09036 5.05013,6.84528 5.71271,11.31269 0.15887,1.07115 0.19933,3.45167 0.0782,4.60196 -0.16221,1.54063 -0.50963,3.12865 -0.98614,4.50752 -0.10788,0.31218 -0.1887,0.57251 -0.1796,0.57853 0.009,0.006 0.24964,0.0541 0.53452,0.10673 2.49462,0.46136 4.89585,1.42858 7.00488,2.82157 1.33663,0.88286 2.16697,1.57155 3.3033,2.73982 2.92799,3.01033 4.78738,6.9238 5.31101,11.17808 0.082,0.66656 0.17469,2.24064 0.13183,2.23962 -0.0121,-2.8e-4 -0.0882,-0.34006 -0.16888,-0.75505 z m -68.46272,0.20644 c -0.0108,-1.46536 0.40353,-3.78859 0.98405,-5.51873 1.47188,-4.38677 4.45226,-8.11285 8.36257,-10.45491 2.06836,-1.23884 4.01601,-1.98889 6.35154,-2.44603 0.34484,-0.0675 0.62165,-0.14535 0.61513,-0.173 -0.006,-0.0277 -0.11228,-0.3339 -0.23506,-0.68057 -0.39727,-1.12181 -0.71486,-2.48208 -0.90417,-3.87255 -0.13721,-1.00791 -0.13922,-3.57493 -0.004,-4.69505 0.29293,-2.42061 0.97545,-4.65716 2.05821,-6.74462 1.49664,-2.88536 3.7383,-5.40058 6.40218,-7.18343 0.91453,-0.61208 0.96751,-0.62461 0.4101,-0.097 -1.67287,1.58327 -2.64047,2.87081 -3.54516,4.71736 -0.71217,1.45357 -1.2009,3.00128 -1.44792,4.58522 -0.13748,0.88153 -0.16859,3.16902 -0.0564,4.14593 0.3961,3.44888 1.84097,6.52309 4.22866,8.9972 1.30047,1.34754 2.44635,2.20765 4.00948,3.00964 1.92069,0.98542 3.53319,1.44947 5.98307,1.72189 l 0.31348,0.0349 v 1.75221 1.75222 l -0.14992,0.0356 c -0.39688,0.0943 -0.99624,0.47671 -1.37283,0.87603 -0.66768,0.70794 -0.90833,1.36319 -0.85916,2.33926 l 0.0295,0.58558 -1.4731,0.85589 c -0.81021,0.47076 -1.4933,0.8559 -1.51797,0.8559 -0.0247,0 -0.18167,-0.19663 -0.34887,-0.43696 -1.07644,-1.54728 -2.31142,-2.7725 -3.81906,-3.78893 -3.68142,-2.48196 -8.16531,-3.31516 -12.37821,-2.30018 -1.35463,0.32638 -2.91392,0.94771 -4.03447,1.60767 -3.8799,2.28507 -6.54658,5.98791 -7.46914,10.37133 l -0.12942,0.61496 z"
     inkscape:connector-curvature="0"
     inkscape:export-xdpi="96"
     inkscape:export-ydpi="96" />
</svg>
